<svg width="24" height="24" xmlns="http://www.w3.org/2000/svg">

 <title>jest-js-icon</title>
 <g>
  <title>Layer 1</title>
  <path id="svg_1" stroke-width="20px" stroke="#fff" fill="#ffffff" d="m334.92,218.1c-0.54,0.33 -18.35,-2.66 -40.67,-4.17a447.59,447.59 0 0 0 -56.74,0c-14,1 -32.44,-6.09 -34.64,2.28c-8.24,31.35 -26,58.66 -48.51,79.93a163.89,163.89 0 0 1 -57.36,35.59c-25,-12.84 -36.81,-41.4 -26.16,-66.44c8.45,-19.87 18.28,-41.74 0.13,-46.75c-13.21,-3.64 -20.46,9 -25.54,22.55c-9.74,25.91 -28.23,52.74 -33.5,84.52c-5.56,33.54 0,69.15 29,89.25c67.56,46.83 140.9,-29 218.23,-48.09c28,-6.92 58.78,-5.8 83.47,-20.1a69.92,69.92 0 0 0 34.23,-48.52c5.57,-32.15 -11.15,-64.06 -41.94,-80.05z" class="a"/>
  <path id="svg_2" fill="#ffffff" stroke-width="20px" stroke="#fff" d="m202.87,216.19c-8.24,31.35 -26,58.66 -48.51,79.93a163.84,163.84 0 0 1 -57.36,35.61c-25,-12.84 -36.8,-41.4 -26.15,-66.44c8.45,-19.87 18.28,-41.74 0.13,-46.75c-13.21,-3.64 -20.47,9 -25.54,22.55c-9.75,25.91 -28.24,52.75 -33.51,84.52c-5.56,33.54 0,69.15 29,89.25c67.56,46.83 140.9,-29 218.23,-48.09c28,-6.92 58.78,-5.8 83.47,-20.1a69.92,69.92 0 0 0 34.23,-48.52c5.58,-32.13 -11.14,-64.06 -41.93,-80" class="b"/>
  <polygon id="svg_3" fill="#ffffff" points="264.89 91.17 319.21 201.98 384.31 10 145.32 10 210.26 201.64 264.89 91.17" class="c"/>
  <polygon id="svg_4" fill="#ffffff" stroke-width="20px" stroke="#fff" points="264.89 91.17 319.21 201.98 384.31 10 145.32 10 210.26 201.64 264.89 91.17" class="b"/>
  <circle id="svg_5" fill="#ffffff" r="40.95" cy="216.58" cx="198.99" class="c"/>
  <circle id="svg_6" fill="#ffffff" stroke-width="20px" stroke="#fff" r="40.95" cy="216.58" cx="198.99" class="b"/>
  <circle id="svg_7" stroke-width="20px" stroke="#fff" fill="#ffffff" r="40.95" cy="216.58" cx="332.37" class="a"/>
  <circle id="svg_8" fill="#ffffff" stroke-width="20px" stroke="#fff" r="40.95" cy="216.58" cx="332.37" class="b"/>
  <circle id="svg_9" fill="#ffffff" r="40.94" cy="216.88" cx="65.1" class="c"/>
  <circle id="svg_10" fill="#ffffff" stroke-width="20px" stroke="#fff" r="40.94" cy="216.88" cx="65.1" class="b"/>
 </g>
</svg>