<svg width="800" height="600" xmlns="http://www.w3.org/2000/svg">

 <g>
  <title>Layer 1</title>
  <g stroke="#fff" fill="none">

   <title fill="#ffffff">jest-js-icon</title>
   <path stroke-width="20px" stroke="#fff" fill="#ffffff" d="m537.91406,298.1c-0.54,0.33 -18.35,-2.66 -40.67,-4.17a447.59,447.59 0 0 0 -56.74,0c-14,1 -32.44,-6.09 -34.64,2.28c-8.24,31.35 -26,58.66 -48.51,79.93a163.89,163.89 0 0 1 -57.36,35.59c-25,-12.84 -36.81,-41.4 -26.16,-66.44c8.45,-19.87 18.28,-41.74 0.13,-46.75c-13.21,-3.64 -20.46,9 -25.54,22.55c-9.74,25.91 -28.23,52.74 -33.5,84.52c-5.56,33.54 0,69.15 29,89.25c67.56,46.83 140.9,-29 218.23,-48.09c28,-6.92 58.78,-5.8 83.47,-20.1a69.92,69.92 0 0 0 34.23,-48.52c5.57,-32.15 -11.15,-64.06 -41.94,-80.05z" class="a"/>
   <path fill="#ffffff" stroke-width="20px" stroke="#fff" d="m405.86406,296.19c-8.24,31.35 -26,58.66 -48.51,79.93a163.84,163.84 0 0 1 -57.36,35.61c-25,-12.84 -36.8,-41.4 -26.15,-66.44c8.45,-19.87 18.28,-41.74 0.13,-46.75c-13.21,-3.64 -20.47,9 -25.54,22.55c-9.75,25.91 -28.24,52.75 -33.51,84.52c-5.56,33.54 0,69.15 29,89.25c67.56,46.83 140.9,-29 218.23,-48.09c28,-6.92 58.78,-5.8 83.47,-20.1a69.92,69.92 0 0 0 34.23,-48.52c5.58,-32.13 -11.14,-64.06 -41.93,-80" class="b"/>
   <polygon fill="#ffffff" points="467.88409423828125,171.1699981689453 522.2040405273438,281.97998046875 587.3040771484375,90 348.3140563964844,90 413.2540588378906,281.6400146484375 467.88409423828125,171.1699981689453 " class="c"/>
   <polygon fill="#ffffff" stroke-width="20px" stroke="#fff" points="467.88409423828125,171.1699981689453 522.2040405273438,281.97998046875 587.3040771484375,90 348.3140563964844,90 413.2540588378906,281.6400146484375 467.88409423828125,171.1699981689453 " class="b"/>
   <circle fill="#ffffff" r="40.95" cy="296.58" cx="401.98406" class="c"/>
   <circle fill="#ffffff" stroke-width="20px" stroke="#fff" r="40.95" cy="296.58" cx="401.98406" class="b"/>
   <circle stroke-width="20px" stroke="#fff" fill="#ffffff" r="40.95" cy="296.58" cx="535.36406" class="a"/>
   <circle fill="#ffffff" stroke-width="20px" stroke="#fff" r="40.95" cy="296.58" cx="535.36406" class="b"/>
   <circle fill="#ffffff" r="40.94" cy="296.88" cx="268.09406" class="c"/>
   <circle fill="#ffffff" stroke-width="20px" stroke="#fff" r="40.94" cy="296.88" cx="268.09406" class="b"/>
  </g>
 </g>
</svg>