<svg width="22" height="24" xmlns="http://www.w3.org/2000/svg">

 <g>
  <title>Layer 1</title>
  <g fill="white">
   <path d="m20.952,18.5l-9.714,5.5l0,-4.286l6.048,-3.334l3.666,2.12zm0.666,-0.595l0,-11.52l-3.548,2.071l0,7.381l3.548,2.048l0,0.02zm-20.952,0.595l9.714,5.5l0,-4.286l-6.048,-3.334l-3.666,2.12zm-0.666,-0.595l0,-11.52l3.548,2.071l0,7.381l-3.548,2.068zm0.405,-12.262l9.976,-5.643l0,4.143l-6.429,3.548l-3.547,-2.048zm20.809,0l-9.976,-5.643l0,4.143l6.428,3.548l3.548,-2.048zm-10.833,13.095l-5.972,-3.287l0,-6.524l5.976,3.452l-0.004,6.359zm0.857,0l5.976,-3.286l0,-6.524l-5.976,3.452l0,6.358zm-6.429,-10.548l6,-3.31l6,3.31l-6,3.453l-6,-3.453z"/>
  </g>
 </g>
</svg>